<?xml version="1.0" encoding="UTF-8"?>
<svg id="_Слой_2" data-name="Слой 2" xmlns="http://www.w3.org/2000/svg" xmlns:xlink="http://www.w3.org/1999/xlink" viewBox="0 0 393.81 314.74">
  <defs>
    <style>
      .cls-1 {
        fill: #fff;
      }

      .cls-2 {
        fill: url(#_Безымянный_градиент_79);
      }

      .cls-3 {
        fill: url(#_Безымянный_градиент_79-9);
      }

      .cls-4 {
        fill: url(#_Безымянный_градиент_63);
      }

      .cls-5 {
        fill: url(#_Безымянный_градиент_79-6);
      }

      .cls-6 {
        fill: url(#_Безымянный_градиент_73-5);
      }

      .cls-6, .cls-7 {
        opacity: .5;
      }

      .cls-6, .cls-7, .cls-8, .cls-9, .cls-10 {
        isolation: isolate;
      }

      .cls-11 {
        fill: url(#_Безымянный_градиент_79-12);
      }

      .cls-12 {
        fill: url(#_Безымянный_градиент_73-4);
      }

      .cls-13 {
        fill: url(#_Безымянный_градиент_73-2);
      }

      .cls-14 {
        fill: url(#_Безымянный_градиент_79-2);
      }

      .cls-15 {
        fill: #aef2cc;
      }

      .cls-16 {
        fill: url(#_Безымянный_градиент_63-3);
      }

      .cls-17 {
        fill: url(#_Безымянный_градиент_79-10);
      }

      .cls-7 {
        fill: url(#_Безымянный_градиент_73-9);
      }

      .cls-18 {
        fill: url(#_Безымянный_градиент_79-5);
      }

      .cls-8 {
        fill: url(#_Безымянный_градиент_73-7);
        opacity: .3;
      }

      .cls-19 {
        fill: url(#_Безымянный_градиент_73-8);
      }

      .cls-20 {
        fill: url(#_Безымянный_градиент_79-8);
      }

      .cls-21 {
        fill: url(#_Безымянный_градиент_79-11);
      }

      .cls-22 {
        fill: url(#_Безымянный_градиент_75);
      }

      .cls-23 {
        fill: url(#_Безымянный_градиент_79-7);
      }

      .cls-9 {
        fill: url(#_Безымянный_градиент_63-2);
      }

      .cls-9, .cls-10 {
        opacity: .6;
      }

      .cls-24 {
        fill: url(#_Безымянный_градиент_73-6);
      }

      .cls-25 {
        fill: url(#_Безымянный_градиент_73-3);
      }

      .cls-26 {
        fill: url(#_Безымянный_градиент_73);
      }

      .cls-27 {
        fill: url(#_Безымянный_градиент_79-3);
      }

      .cls-28 {
        fill: url(#_Безымянный_градиент_75-2);
      }

      .cls-10 {
        fill: url(#_Безымянный_градиент_63-4);
      }

      .cls-29 {
        fill: url(#_Безымянный_градиент_79-4);
      }
    </style>
    <linearGradient id="_Безымянный_градиент_73" data-name="Безымянный градиент 73" x1="142.08" y1="687.91" x2="159.78" y2="687.91" gradientTransform="translate(123.31 794.88) scale(1 -1)" gradientUnits="userSpaceOnUse">
      <stop offset="0" stop-color="#ff9085"/>
      <stop offset="1" stop-color="#fb6fbb"/>
    </linearGradient>
    <linearGradient id="_Безымянный_градиент_73-2" data-name="Безымянный градиент 73" x1="143.53" y1="710.56" x2="173.61" y2="710.56" xlink:href="#_Безымянный_градиент_73"/>
    <linearGradient id="_Безымянный_градиент_63" data-name="Безымянный градиент 63" x1="-14.22" y1="571.97" x2="45.35" y2="571.97" gradientTransform="translate(123.31 794.88) scale(1 -1)" gradientUnits="userSpaceOnUse">
      <stop offset="0" stop-color="#444b8c"/>
      <stop offset="1" stop-color="#26264f"/>
    </linearGradient>
    <linearGradient id="_Безымянный_градиент_63-2" data-name="Безымянный градиент 63" x1="5.63" y1="571.25" x2="24.94" y2="571.25" xlink:href="#_Безымянный_градиент_63"/>
    <linearGradient id="_Безымянный_градиент_79" data-name="Безымянный градиент 79" x1="136.81" y1="1289.28" x2="137.58" y2="1277.8" gradientTransform="translate(-986 2146.8) rotate(24.97) scale(1 -1.76)" gradientUnits="userSpaceOnUse">
      <stop offset="0" stop-color="#ab316d"/>
      <stop offset="1" stop-color="#792d3d"/>
    </linearGradient>
    <linearGradient id="_Безымянный_градиент_79-2" data-name="Безымянный градиент 79" x1="67.09" y1="670.14" x2="69.11" y2="639.73" gradientTransform="translate(123.31 794.88) scale(1 -1)" xlink:href="#_Безымянный_градиент_79"/>
    <linearGradient id="_Безымянный_градиент_79-3" data-name="Безымянный градиент 79" x1="36.11" y1="653.6" x2="102.11" y2="653.6" gradientTransform="translate(123.31 794.88) scale(1 -1)" xlink:href="#_Безымянный_градиент_79"/>
    <linearGradient id="_Безымянный_градиент_79-4" data-name="Безымянный градиент 79" x1="-26.91" y1="583.89" x2="8.02" y2="583.89" gradientTransform="translate(123.31 794.88) scale(1 -1)" xlink:href="#_Безымянный_градиент_79"/>
    <linearGradient id="_Безымянный_градиент_79-5" data-name="Безымянный градиент 79" x1="12.11" y1="568.82" x2="72.73" y2="568.82" gradientTransform="translate(123.31 794.88) scale(1 -1)" xlink:href="#_Безымянный_градиент_79"/>
    <linearGradient id="_Безымянный_градиент_63-3" data-name="Безымянный градиент 63" x1="174.41" x2="233.98" xlink:href="#_Безымянный_градиент_63"/>
    <linearGradient id="_Безымянный_градиент_63-4" data-name="Безымянный градиент 63" x1="194.27" y1="571.25" x2="213.57" y2="571.25" xlink:href="#_Безымянный_градиент_63"/>
    <linearGradient id="_Безымянный_градиент_79-6" data-name="Безымянный градиент 79" x1="294.25" y1="1590.95" x2="347.73" y2="1590.95" gradientTransform="translate(-1064.55 1062.57) rotate(46.81) scale(1 -1)" xlink:href="#_Безымянный_градиент_79"/>
    <linearGradient id="_Безымянный_градиент_73-3" data-name="Безымянный градиент 73" x1="168.16" y1="599.99" x2="232.51" y2="599.99" xlink:href="#_Безымянный_градиент_73"/>
    <linearGradient id="_Безымянный_градиент_73-4" data-name="Безымянный градиент 73" x1="-31.92" y1="623.91" x2="198.13" y2="623.91" xlink:href="#_Безымянный_градиент_73"/>
    <linearGradient id="_Безымянный_градиент_73-5" data-name="Безымянный градиент 73" x1="142.24" y1="634.21" x2="165.75" y2="634.21" xlink:href="#_Безымянный_градиент_73"/>
    <linearGradient id="_Безымянный_градиент_79-7" data-name="Безымянный градиент 79" x1="93.71" y1="581.96" x2="144.71" y2="581.96" gradientTransform="translate(123.31 794.88) scale(1 -1)" xlink:href="#_Безымянный_градиент_79"/>
    <linearGradient id="_Безымянный_градиент_73-6" data-name="Безымянный градиент 73" x1="-33.93" y1="604.25" x2="64.93" y2="604.25" xlink:href="#_Безымянный_градиент_73"/>
    <linearGradient id="_Безымянный_градиент_73-7" data-name="Безымянный градиент 73" x1="-33.93" y1="604.99" x2="64.93" y2="604.99" xlink:href="#_Безымянный_градиент_73"/>
    <linearGradient id="_Безымянный_градиент_73-8" data-name="Безымянный градиент 73" x1="-26.33" y1="890.07" x2="-11.16" y2="661.46" xlink:href="#_Безымянный_градиент_73"/>
    <linearGradient id="_Безымянный_градиент_79-8" data-name="Безымянный градиент 79" x1="-14.69" y1="664.84" x2="-13.16" y2="641.82" gradientTransform="translate(123.31 794.88) scale(1 -1)" xlink:href="#_Безымянный_градиент_79"/>
    <linearGradient id="_Безымянный_градиент_73-9" data-name="Безымянный градиент 73" x1="-14.54" y1="740.21" x2="-13.19" y2="719.91" xlink:href="#_Безымянный_градиент_73"/>
    <linearGradient id="_Безымянный_градиент_75" data-name="Безымянный градиент 75" x1="183.03" y1="673.43" x2="185.59" y2="634.83" gradientTransform="translate(123.31 794.88) scale(1 -1)" gradientUnits="userSpaceOnUse">
      <stop offset="0" stop-color="#f36f56"/>
      <stop offset="1" stop-color="#ffc444"/>
    </linearGradient>
    <linearGradient id="_Безымянный_градиент_75-2" data-name="Безымянный градиент 75" x1="163.31" y1="710.94" x2="173.62" y2="710.94" xlink:href="#_Безымянный_градиент_75"/>
    <linearGradient id="_Безымянный_градиент_79-9" data-name="Безымянный градиент 79" x1="148.31" y1="709.09" x2="156.11" y2="709.09" gradientTransform="translate(123.31 794.88) scale(1 -1)" xlink:href="#_Безымянный_градиент_79"/>
    <linearGradient id="_Безымянный_градиент_79-10" data-name="Безымянный градиент 79" x1="294.24" y1="448.43" x2="327.55" y2="448.43" gradientTransform="translate(151.13 577.2) rotate(-13.5) scale(.72 -1)" xlink:href="#_Безымянный_градиент_79"/>
    <linearGradient id="_Безымянный_градиент_79-11" data-name="Безымянный градиент 79" x1="135.21" y1="740.74" x2="145.4" y2="743.19" gradientTransform="translate(123.31 794.88) scale(1 -1)" xlink:href="#_Безымянный_градиент_79"/>
    <linearGradient id="_Безымянный_градиент_79-12" data-name="Безымянный градиент 79" x1="143.65" y1="725.98" x2="151.4" y2="727.84" gradientTransform="translate(123.31 794.88) scale(1 -1)" xlink:href="#_Безымянный_градиент_79"/>
  </defs>
  <g id="_Слой_4" data-name="Слой 4">
    <g>
      <path class="cls-15" d="m.07,89.28c1.08,23.07,15.04,44.22,31.53,58.05,9.73,8.16,20.62,14.68,31.46,20.98,4.9,2.85,9.83,5.66,14.68,8.63,1.45.89,2.89,1.8,4.33,2.7.29.18.54.34.76.47.09.06.21.15.39.27,2.34,1.61,4.64,3.28,6.88,5.03,3.93,3.07,7.7,6.39,11.2,10.02.45.47.89.94,1.33,1.42-.06-.02,1.76,2.08,1.83,2.16,1.75,2.23,3.39,4.55,4.88,6.98.49.81.95,1.64,1.43,2.45.22.37.38.62.5.82.08.22.18.49.34.87.9,2.22,1.79,4.4,2.48,6.71.05.17.66,2.83.7,2.8.09.54.19,1.08.27,1.62.4,2.67.63,5.37.77,8.07,1.07,20.86-2.38,42.9,10.38,60.78,13.83,19.38,37.68,29.2,58.56,22.54,17.46-5.57,32.92-16.67,50.57-21.77,18.69-5.41,37.9-8.28,57.21-9.12,8.14-.36,16.72-.61,24.23-4.41,8.35-4.23,14.09-13.07,16.64-22.37,2.78-10.1,2.48-20.86,3.56-31.23,1.15-10.98,4.3-21.64,9.28-31.34,5.27-10.25,30.85-38.79,35.14-43.55,17.67-19.62,11.72-40.6,10.39-46.59-3.71-16.75-17.03-29.11-31.17-38.41-41.09-26.99-90.11-8.62-133.66-1.01-5,.87-10.03,1.61-15.07,2.1-2.51.24-5.02.43-7.53.54-1.5.07-3.01.11-4.52.13-.28,0-2.55-.04-2.89-.04-10.8-.48-21.33-2.9-30.47-6.47-22.12-8.64-42.28-22.19-64.81-29.75-22.26-7.47-46.59-9.75-68.04,2.01C12.81,42.77-1.13,63.71.07,89.28Z"/>
      <path class="cls-15" d="m55.14,240.79c6.36,19.77,37.8,32.79,39.66,6.8,1.19-16.57-12.91-31.35-25.3-39.78-15.97-10.87-18.29,20.77-14.36,32.98Z"/>
      <path class="cls-15" d="m33.25,200.26c2.13,1.05,7.14,2.45,9.52,2.29,12.88-.85,10.68-17.51.88-22.15-4.78-2.38-10.55-1.25-12.86,4.17-3.46,5.37-5.33,11.84,2.46,15.69Z"/>
      <path class="cls-15" d="m173.51,26.41c.89,3.32,4.46,7.79,7.71,8.91,4.09,1.36,8.17,2.27,12.4,2.44,13.04.72,25.79-4.35,35.5-14.6,1.88-1.98,2.24-5.3,1.67-7.88-2.08-9.04-22.49-14.69-30.36-15.1-9.15-.69-20.83.07-25.28,10.37-2.43,5.63-3.13,10.29-1.64,15.86Z"/>
    </g>
    <g>
      <g>
        <path class="cls-26" d="m282.24,103.9l-6.95-9.6-6.96,7.14c-3.37,3.46-3.92,9.19-1.27,13.37l3.08,4.85,10.66-4.95,2.07-6.73c.43-1.39.19-2.93-.64-4.07Z"/>
        <path class="cls-13" d="m296.92,84.32c0,8.55-2.1,15.78-8.08,18.15-1.35.54-2.89.82-4.66.82-9.58,0-17.35-8.5-17.35-18.97s7.55-18.74,16.95-18.97c.13,0,.26,0,.4,0,9.58,0,12.74,8.49,12.74,18.97Z"/>
        <g>
          <ellipse class="cls-4" cx="138.87" cy="222.91" rx="29.78" ry="33.39"/>
          <ellipse class="cls-1" cx="138.86" cy="222.91" rx="20.55" ry="23.04"/>
        </g>
        <ellipse class="cls-9" cx="138.59" cy="223.63" rx="9.65" ry="10.82"/>
        <path class="cls-2" d="m109.55,169.86c-.23.55-.63.87-.91.73l-36.5-19.06c-.28-.14-.32-.7-.09-1.25h0c.23-.55.63-.87.91-.73l36.5,19.06c.28.14.32.7.09,1.25h0Z"/>
        <g>
          <rect class="cls-14" x="163.02" y="145.99" width="58.2" height="9.42"/>
          <path class="cls-27" d="m225.42,141.28c0,3.34-2.42,6.05-5.4,6.05h-55.2c-2.98,0-5.4-2.71-5.4-6.05h0c0-3.34,2.42-6.05,5.4-6.05h55.2c2.98,0,5.4,2.71,5.4,6.05h0Z"/>
        </g>
        <path class="cls-29" d="m112.26,197.96s-15.6,5.56-15.86,25.02c0,.31.1.54.3.76.19.22.46.28.74.28h5.63c.69,0,1.36-.18,1.91-.64l26.36-21.73-19.07-3.69Z"/>
        <path class="cls-18" d="m185.19,216.21c-2-.34-33.79.27-45.45.5-2.36.05-4.32,2.21-4.32,4.85v1.98c0,2.46,1.71,4.53,3.88,4.82l56.73,7.64-10.84-19.8Z"/>
        <g>
          <ellipse class="cls-16" cx="327.5" cy="222.91" rx="29.78" ry="33.39"/>
          <ellipse class="cls-1" cx="327.5" cy="222.91" rx="20.55" ry="23.04"/>
        </g>
        <ellipse class="cls-10" cx="327.23" cy="223.63" rx="9.65" ry="10.82"/>
        <path class="cls-5" d="m332.07,228.49c-2.67,2.8-6.85,2.66-9.36-.33l-25.29-30.21c-2.5-2.99-2.37-7.68.3-10.49l.4-.42c2.67-2.8,6.85-2.66,9.36.33l25.29,30.21c2.5,2.99,2.37,7.68-.3,10.49l-.4.42Z"/>
        <path class="cls-25" d="m355.73,198.45c-3.72-13.68-16.84-25.4-33.19-25.4-17.47,0-29.42,19.44-29.42,19.44l-1.65,24.24,14.51-2.17c3.13-.47,6.06-1.94,8.46-4.25l7.72-7.49c1.08-1.04,2.45-1.67,3.88-1.67h27.84c.62,0,1.2-.27,1.56-.82.37-.56.48-1.21.3-1.87Z"/>
        <path class="cls-12" d="m321.44,160.92c.28,8.19-22.61,55.15-25.92,56.69s-13.24,18.51-31.16,18.51h-65.15c-3.82,0-7.39-1.99-9.44-5.6-5.22-9.15-15.85-26.01-23.86-27.81-9.22-2.07-55.05-7.76-69.84-9.58-2.77-.35-4.82-2.93-4.66-6.05.5-9.97,4.31-30.33,26.52-35.72h102.57c1.53,0,2.54,1.21,2.54,2.92v3.81c0,2.26-.65,4.44-2.03,6.1-5.51,6.62-19.26,24.51-13.24,30.68,7.45,7.62,11.61,22.77,28.16,22.77,10.4,0,21.9-1.95,29.62-6.02,4.57-2.4,7.82-5.53,8.74-9.44,2.48-10.51-6.34-73.5-7.17-83.59-.46-5.6,3.66-9.42,7.42-11.71,0,0,0,0,0,0,3.17-1.93,7.08-1.2,9.52,1.76,10.07,12.19,37.16,45.6,37.39,52.28Z"/>
        <path class="cls-6" d="m285.4,194.89c-10.67,12.15-19.12,19.56-19.12,19.56l-.73-2.81c4.57-2.4,7.81-5.53,8.73-9.44,2.48-10.51-6.34-73.5-7.17-83.59-.46-5.6,3.66-9.42,7.42-11.71-.24.24-5.95,6.09,0,22.23,6.09,16.49,21.53,53.61,10.87,65.76Z"/>
        <path class="cls-23" d="m268.02,212.92c0,2.79-2.01,5.04-4.5,5.04h-42c-2.49,0-4.5-2.26-4.5-5.04h0c0-2.79,2.01-5.04,4.5-5.04h42c2.49,0,4.5,2.26,4.5,5.04h0Z"/>
        <path class="cls-24" d="m187.83,217.1s5.79-50.26-26.09-52.95h-45.48s-27.95,11.6-26.84,38.81c61.78,7.83,98.41,14.14,98.41,14.14Z"/>
        <path class="cls-8" d="m90.79,203.47c5.53-19,25.47-27.21,25.47-27.21h45.48c20.52,2.02,25.43,23.63,26.32,38.69.65-10.81.85-48.11-26.32-50.13h-45.48s-27.95,11.51-26.84,38.71c.46.06.92-.12,1.38-.07Z"/>
        <path class="cls-19" d="m157.62,64.25c0-6.5-4.7-11.76-10.49-11.76h-74.41c-5.8,0-10.49,5.27-10.49,11.76v71.31c0,6.5,4.7,11.76,10.49,11.76h74.41c5.8,0,10.49-5.27,10.49-11.76v-71.31h0Z"/>
        <path class="cls-20" d="m152.22,149.69c0,1.3-.94,2.35-2.1,2.35h-80.4c-1.16,0-2.1-1.05-2.1-2.35h0c0-1.3.94-2.35,2.1-2.35h80.4c1.16,0,2.1,1.05,2.1,2.35h0Z"/>
        <path class="cls-7" d="m157.62,72c0,.74-.54,1.35-1.2,1.35H63.42c-.66,0-1.2-.6-1.2-1.35h0c0-.74.54-1.35,1.2-1.35h93c.66,0,1.2.6,1.2,1.35h0Z"/>
        <path class="cls-22" d="m312.42,158.63c0,2.31-1.67,4.17-3.72,4.17h-.35c-2.06,0-3.72-1.87-3.72-4.17v-8.47c0-2.31,1.67-4.17,3.72-4.17h.35c2.06,0,3.72,1.87,3.72,4.17v8.47Z"/>
        <path class="cls-28" d="m286.62,65.54v36.72c.6.13,1.25,0,1.92,0h.29c5.98-2.02,8.09-9.5,8.09-18.05,0-9.54-1.91-17.34-10.31-18.67Z"/>
        <path class="cls-1" d="m287.82,104.28c0,1.11-.81,2.02-1.8,2.02h0c-.99,0-1.8-.9-1.8-2.02v-39.69c0-1.11.81-2.02,1.8-2.02h0c.99,0,1.8.9,1.8,2.02v39.69Z"/>
        <g>
          <path class="cls-3" d="m279.42,87.33c0,2.31-1.67,4.17-3.72,4.17h-.35c-2.06,0-3.72-1.87-3.72-4.17v-3.09c0-2.31,1.67-4.17,3.72-4.17h.35c2.06,0,3.72,1.87,3.72,4.17v3.09Z"/>
          <path class="cls-17" d="m276.3,85.64c.5,2.32-.31,4.54-1.81,4.94l-17.81,4.79c-1.5.4-3.11-1.16-3.61-3.48h0c-.5-2.32.31-4.54,1.81-4.94l17.81-4.79c1.5-.4,3.11,1.16,3.61,3.48h0Z"/>
        </g>
        <g>
          <ellipse class="cls-21" cx="263.62" cy="52.92" rx="4.78" ry="10.36"/>
          <path class="cls-11" d="m274.92,77.6c-.3,0-.3-.28-.3-.62v-7.46c-1.2-1.26-8.46-8.56-9.67-9.69-.23-.22-.42-.61-.22-.87.2-.26.47-.3.7-.08,1.34,1.25,9.27,9.56,9.6,9.92.11.12.19.28.19.45v7.73c0,.34,0,.62-.3.62Z"/>
        </g>
      </g>
      <g>
        <g>
          <path class="cls-1" d="m87.51,114.83c2.28,6.34,8.93,10.97,16.79,10.97h9.09c7.86,0,14.51-4.64,16.79-10.97.18-.49.08-1.21-.26-1.63s-.88-.85-1.46-.85h-39.22c-.58,0-1.12.43-1.46.85-.34.42-.44,1.14-.26,1.63Z"/>
          <path class="cls-1" d="m87.78,92.99c2.28-6.34,8.93-10.91,16.79-10.91h9.09c7.86,0,14.51,4.57,16.79,10.91.18.49.08.91-.26,1.33s-.88.55-1.46.55h-39.22c-.58,0-1.12-.13-1.46-.55-.34-.42-.44-.84-.26-1.33Z"/>
          <path class="cls-1" d="m131.22,106.64c0,1.3-.94,2.35-2.1,2.35h-38.4c-1.16,0-2.1-1.05-2.1-2.35h0c0-1.3.94-2.35,2.1-2.35h38.4c1.16,0,2.1,1.05,2.1,2.35h0Z"/>
          <path class="cls-1" d="m95.66,97.29c1.98,0,2.99,1.1,3.88,2.07.8.88,1.5,1.63,2.92,1.63s2.11-.76,2.92-1.63c.89-.97,1.9-2.07,3.88-2.07s2.99,1.1,3.88,2.07c.8.88,1.5,1.63,2.92,1.63s2.11-.76,2.92-1.63c.89-.97,1.9-2.07,3.88-2.07s2.99,1.1,3.88,2.07c.8.88,1.5,1.63,2.92,1.63.38,0,.69.35.69.77s-.31.77-.69.77c-1.98,0-2.99-1.1-3.88-2.07-.8-.88-1.5-1.63-2.92-1.63s-2.11.76-2.92,1.63c-.89.97-1.9,2.07-3.88,2.07s-2.99-1.1-3.88-2.07c-.8-.88-1.5-1.63-2.92-1.63s-2.11.76-2.92,1.63c-.89.97-1.9,2.07-3.88,2.07s-2.99-1.1-3.88-2.07c-.8-.88-1.5-1.63-2.92-1.63s-2.11.76-2.92,1.63c-.89.97-1.9,2.07-3.88,2.07-.38,0-.69-.35-.69-.77s.31-.77.69-.77c1.42,0,2.11-.76,2.92-1.63.89-.97,1.9-2.07,3.88-2.07Z"/>
        </g>
        <path class="cls-1" d="m135.42,133.88c0,1.11-.81,2.02-1.8,2.02h-49.2c-.99,0-1.8-.9-1.8-2.02h0c0-1.11.81-2.02,1.8-2.02h49.2c.99,0,1.8.9,1.8,2.02h0Z"/>
      </g>
    </g>
  </g>
</svg>