<?xml version="1.0" encoding="UTF-8"?>
<svg id="_Слой_2" data-name="Слой 2" xmlns="http://www.w3.org/2000/svg" viewBox="0 0 366.51 317.97">
  <defs>
    <style>
      .cls-1, .cls-2 {
        fill: #fff;
      }

      .cls-3 {
        fill: #b9d3d1;
      }

      .cls-4 {
        fill: #95bebc;
      }

      .cls-5 {
        fill: #b25d3c;
      }

      .cls-6 {
        fill: #6d9293;
      }

      .cls-7 {
        fill: #342532;
      }

      .cls-8 {
        fill: #f0bcc1;
      }

      .cls-9 {
        fill: #030303;
      }

      .cls-10 {
        fill: #c28358;
      }

      .cls-11 {
        fill: #a96c2c;
      }

      .cls-2 {
        opacity: .25;
      }

      .cls-12 {
        fill: #2e2633;
      }

      .cls-13 {
        fill: #e65536;
      }

      .cls-14 {
        fill: #f8a929;
      }

      .cls-15 {
        fill: #fbf1e3;
      }

      .cls-16 {
        fill: #393854;
      }

      .cls-17 {
        fill: #463842;
      }

      .cls-18 {
        fill: #bf803a;
      }

      .cls-19 {
        fill: #26263d;
      }
    </style>
  </defs>
  <g id="_Слой_3" data-name="Слой 3">
    <g>
      <g>
        <g>
          <path class="cls-8" d="m315.97,119.02s0-.01,0-.02c0,.01,0,.02,0,.03,0,0,0-.01,0-.02Z"/>
          <path class="cls-8" d="m.13,152.95c-2.13,28.83,22.08,47.64,36.11,58.3,73.64,55.97,64.11,85.24,78.82,98.3,0,0,3.25,2.47,7.09,4.25,29.04,13.47,91.59-9.99,91.59-9.99,83.26-31.21,130.15,5.99,148.84-23.68,14.58-23.15-15.55-43.27-23.23-109.59-8.6-74.29,21.85-111.45.9-133.12-11.02-11.4-36.23-18.12-99.73,5.69-38.51,31.3-51.35,57.03-105.06,45.09-19.53-3.75-38.35-11.35-58.45-11.66C36.96,75.43,3.73,104.4.13,152.95Z"/>
        </g>
        <path class="cls-8" d="m137.19,39.79c3.67,5.51,10.22,6.95,16.25,6.49,5.14-.39,10.78-2.02,15.55-4.21,5.76-2.64,11.02-7,13.42-13.43,2.63-7.05,1.85-14.92-3.32-20.17-4.39-4.45-10.95-5.29-16.77-4.03-6.02,1.31-12.33,3.86-17.49,7.58-3.38,2.43-6.18,5.95-7.76,9.92-3.1,5.53-3.42,12.54.12,17.86Z"/>
        <path class="cls-8" d="m217.21,25.05c.58.09,1.16.1,1.74.05.16,0,.31.02.47.02,5.53.13,10.47-5.57,11.33-11.15,1.03-6.7-3.33-12.95-9.53-13.86-6.22-.91-12.36,3.38-13.56,10.22-1.18,6.78,3.25,13.69,9.54,14.71Z"/>
        <path class="cls-8" d="m27.45,280.39c3.48,2.35,9.04-.27,10.62-4.17.59-1.46.83-2.86.76-4.18.95-1.53,1.46-3.38,1.33-5.37-.68-10.6-5.85-20.94-14.05-26.79-2.41-1.72-4.95-2.59-7.86-1.4-2.68,1.1-4.55,3.6-5.15,6.58-2.86,14.19,3.37,27.92,14.34,35.34Z"/>
      </g>
      <g>
        <rect class="cls-3" x="298.49" y="89.2" width="6.35" height="160.32"/>
        <rect class="cls-3" x="74.76" y="89.2" width="6.35" height="160.32"/>
        <rect class="cls-4" x="81.11" y="145.4" width="217.38" height="104.12"/>
        <rect class="cls-19" x="74.76" y="241.45" width="230.08" height="22.16"/>
        <rect class="cls-4" x="81.11" y="89.2" width="217.38" height="18.16"/>
        <rect class="cls-4" x="66.28" y="42.48" width="246.36" height="46.72" rx="7.24" ry="7.24"/>
        <rect class="cls-6" x="226.65" y="155.26" width="67.8" height="80.16"/>
        <rect class="cls-4" x="230.59" y="158.96" width="60.24" height="72.6"/>
        <rect class="cls-7" x="232.27" y="161.56" width="56.43" height="67.46"/>
        <rect class="cls-6" x="74.76" y="89.2" width="230.08" height="6.44"/>
        <rect class="cls-15" x="74.76" y="241.45" width="230.08" height="6.7"/>
        <rect class="cls-6" x="81.11" y="104.95" width="217.2" height="2"/>
        <rect class="cls-6" x="163.69" y="155.26" width="55.42" height="108.62"/>
        <rect class="cls-4" x="167.28" y="158.96" width="47.85" height="104.92"/>
        <rect class="cls-7" x="170.97" y="163.85" width="40.47" height="54.97"/>
        <polygon class="cls-2" points="211.43 210.72 211.43 218.82 204.4 218.82 211.43 210.72"/>
        <polygon class="cls-2" points="211.43 173.91 211.43 193.56 189.51 218.82 172.47 218.82 211.43 173.91"/>
        <polygon class="cls-2" points="211.43 163.85 211.43 163.97 170.97 210.62 170.97 184.41 188.8 163.85 211.43 163.85"/>
        <rect class="cls-6" x="170.97" y="228.53" width="40.47" height="25.84"/>
        <rect class="cls-4" x="174.47" y="231.9" width="33.45" height="18.96"/>
        <path class="cls-17" d="m346.71,263.61H57.19c-4.79,0-8.71,3.92-8.71,8.72v5.46h306.95v-5.46c0-4.79-3.92-8.72-8.72-8.72Z"/>
        <rect class="cls-6" x="88.11" y="155.26" width="67.8" height="80.16" transform="translate(244.03 390.68) rotate(180)"/>
        <rect class="cls-4" x="91.73" y="158.96" width="60.24" height="72.6" transform="translate(243.71 390.51) rotate(180)"/>
        <rect class="cls-7" x="93.87" y="161.56" width="56.43" height="67.46"/>
        <polygon class="cls-16" points="298.31 106.94 81.52 106.94 61.25 139.27 320.51 139.27 298.31 106.94"/>
        <rect class="cls-19" x="61.25" y="139.27" width="259.26" height="13.26"/>
        <polygon class="cls-2" points="288.7 189.25 288.7 229.01 254.2 229.01 288.7 189.25"/>
        <polygon class="cls-2" points="150.29 216.28 150.29 229.01 139.25 229.01 150.29 216.28"/>
        <g>
          <rect class="cls-14" x="174.95" y="186.21" width="10.27" height="4.67"/>
          <circle class="cls-13" cx="180.4" cy="199.08" r="4.25"/>
          <rect class="cls-1" x="174.47" y="208.14" width="11.06" height="5.79"/>
          <rect class="cls-12" x="175.89" y="209.91" width="8.23" height="2.25"/>
        </g>
        <polygon class="cls-2" points="232.27 204.96 232.27 229.02 233.25 229.02 288.7 165.13 288.7 161.56 269.91 161.56 232.27 204.96"/>
        <polygon class="cls-2" points="288.7 189.25 254.2 229.01 288.7 229.01 288.7 189.25"/>
        <polygon class="cls-2" points="248.46 161.56 232.27 180.38 232.27 161.56 248.46 161.56"/>
        <polygon class="cls-2" points="137.01 161.56 93.87 211.24 93.87 229.01 113.96 229.01 150.29 185.93 150.29 161.56 137.01 161.56"/>
        <polygon class="cls-2" points="115.98 161.56 93.87 187.23 93.87 161.56 115.98 161.56"/>
        <polygon class="cls-2" points="150.29 216.28 139.25 229.01 150.29 229.01 150.29 216.28"/>
        <g>
          <g>
            <polygon class="cls-5" points="107.34 204.04 100.64 263.61 103.56 263.61 105.56 245.76 127.04 245.76 125.04 263.61 127.95 263.61 134.64 204.04 107.34 204.04"/>
            <polygon class="cls-9" points="105.93 242.52 127.4 242.52 131.37 207.23 109.89 207.23 105.93 242.52"/>
          </g>
          <g>
            <polygon class="cls-10" points="136.83 204.04 143.52 263.61 140.6 263.61 138.6 245.76 117.12 245.76 119.13 263.61 116.21 263.61 109.52 204.04 136.83 204.04"/>
            <polygon class="cls-9" points="138.24 242.52 116.76 242.52 112.79 207.23 134.27 207.23 138.24 242.52"/>
          </g>
        </g>
        <g>
          <g>
            <rect class="cls-11" x="309.67" y="240.45" width="3.59" height="23.16"/>
            <rect class="cls-11" x="301.5" y="240.45" width="3.59" height="23.16"/>
            <path class="cls-18" d="m333.32,241.55s0,.05-.02.07c-.11.44-.5.76-.97.76h-31.62c-.49,0-.91-.36-.99-.83.11-1.31.87-2.45,1.96-3.08.59-.34,1.27-.54,2-.54h25.69c.34,0,.67.04.99.13.36.09.7.23,1.01.42,1.08.63,1.84,1.76,1.95,3.07,0,0,0,0,0,.01Z"/>
            <path class="cls-18" d="m331.95,214.38h-6.89c-3.22,0-6.3,2.64-6.83,5.86l-2.93,17.68h3.61l1.42-8.59h11.46l-1.44,8.72c.36.09.7.23,1.01.42,1.08.63,1.84,1.76,1.95,3.07l3.53-21.3c.53-3.22-1.67-5.86-4.89-5.86Zm1.15,7.03l-.77,4.66h-11.46l.77-4.66c.38-2.3,2.58-4.18,4.88-4.18h3.09c2.3,0,3.87,1.88,3.49,4.18Z"/>
            <rect class="cls-18" x="329.73" y="240.45" width="3.59" height="23.16"/>
            <rect class="cls-18" x="315.31" y="240.45" width="3.59" height="23.16"/>
          </g>
          <rect class="cls-11" x="289.23" y="227.17" width="2.94" height="36.44"/>
          <rect class="cls-15" x="270.49" y="226.3" width="41.76" height="3.33" rx="1.66" ry="1.66"/>
          <g>
            <rect class="cls-11" x="268.4" y="240.45" width="3.59" height="23.16" transform="translate(540.39 504.06) rotate(180)"/>
            <rect class="cls-11" x="276.57" y="240.45" width="3.59" height="23.16" transform="translate(556.73 504.06) rotate(180)"/>
            <path class="cls-18" d="m248.34,241.55s0,.05.02.07c.11.44.5.76.97.76h31.62c.49,0,.91-.36.99-.83-.11-1.31-.87-2.45-1.96-3.08-.59-.34-1.27-.54-2-.54h-25.69c-.34,0-.67.04-.99.13-.36.09-.7.23-1.01.42-1.08.63-1.84,1.76-1.95,3.07,0,0,0,0,0,.01Z"/>
            <path class="cls-18" d="m244.82,220.24l3.53,21.3c.12-1.31.87-2.44,1.95-3.07.31-.18.65-.33,1.01-.42l-1.44-8.72h11.46l1.42,8.59h3.61l-2.93-17.68c-.53-3.22-3.61-5.86-6.83-5.86h-6.89c-3.22,0-5.42,2.64-4.89,5.86Zm7.23-3.02h3.09c2.3,0,4.49,1.88,4.88,4.18l.77,4.66h-11.46l-.77-4.66c-.38-2.3,1.19-4.18,3.49-4.18Z"/>
            <rect class="cls-18" x="248.34" y="240.45" width="3.59" height="23.16" transform="translate(500.28 504.06) rotate(180)"/>
            <rect class="cls-18" x="262.77" y="240.45" width="3.59" height="23.16" transform="translate(529.12 504.06) rotate(180)"/>
          </g>
        </g>
      </g>
    </g>
  </g>
</svg>